<svg xmlns="http://www.w3.org/2000/svg" viewBox="0 0 64 64" role="img" aria-labelledby="title">
  <title id="title">GameFeed</title>
  <defs>
    <linearGradient id="g" x1="8" y1="5" x2="57" y2="61" gradientUnits="userSpaceOnUse">
      <stop stop-color="#9BFFD0"/>
      <stop offset="1" stop-color="#38DC91"/>
    </linearGradient>
  </defs>
  <rect x="3" y="3" width="58" height="58" rx="17" fill="#12171D" stroke="#2E3A3B" stroke-width="2"/>
  <path d="M24.5 15.5h15a6 6 0 0 1 6 6v21a6 6 0 0 1-6 6h-15a6 6 0 0 1-6-6v-21a6 6 0 0 1 6-6Z" fill="none" stroke="url(#g)" stroke-width="4"/>
  <path d="m29 25 10 7-10 7V25Z" fill="url(#g)"/>
  <path d="m11 24 4-4 4 4M53 40l-4 4-4-4" fill="none" stroke="#F6F8FA" stroke-width="3" stroke-linecap="round" stroke-linejoin="round"/>
</svg>
